<svg xmlns="http://www.w3.org/2000/svg" width="182" height="112" viewBox="0 0 182 112">
  <g id="Grupo_621" data-name="Grupo 621" transform="translate(0 -0.222)">
    <g id="Componente_28_7" data-name="Componente 28 – 7" transform="translate(0 0.222)">
      <g id="Componente_23_22" data-name="Componente 23 – 22">
        <g id="Retângulo_4" data-name="Retângulo 4" fill="#e0e0e0" stroke="#c5c5c5" stroke-width="1">
          <rect width="182" height="112" rx="6" stroke="none"/>
          <rect x="0.5" y="0.5" width="181" height="111" rx="5.5" fill="none"/>
        </g>
      </g>
      <g id="Grupo_23" data-name="Grupo 23" transform="translate(95.484 9.691)">
        <g id="Retângulo_26" data-name="Retângulo 26" fill="#fff" stroke="#707070" stroke-width="1">
          <rect width="70.544" height="7.838" rx="3.919" stroke="none"/>
          <rect x="0.5" y="0.5" width="69.544" height="6.838" rx="3.419" fill="none"/>
        </g>
        <g id="Retângulo_29" data-name="Retângulo 29" transform="translate(0 22.729)" fill="#fff" stroke="#707070" stroke-width="1">
          <rect width="70.544" height="7.838" rx="3.919" stroke="none"/>
          <rect x="0.5" y="0.5" width="69.544" height="6.838" rx="3.419" fill="none"/>
        </g>
        <g id="Retângulo_30" data-name="Retângulo 30" transform="translate(0 34.418)" fill="#fff" stroke="#707070" stroke-width="1">
          <rect width="70.544" height="7.838" rx="3.919" stroke="none"/>
          <rect x="0.5" y="0.5" width="69.544" height="6.838" rx="3.419" fill="none"/>
        </g>
        <g id="Retângulo_27" data-name="Retângulo 27" transform="translate(-0.484 11.309)" fill="#fff" stroke="#707070" stroke-width="1">
          <rect width="34" height="8" rx="4" stroke="none"/>
          <rect x="0.5" y="0.5" width="33" height="7" rx="3.5" fill="none"/>
        </g>
        <g id="Retângulo_28" data-name="Retângulo 28" transform="translate(37.516 11.309)" fill="#fff" stroke="#707070" stroke-width="1">
          <rect width="33" height="8" rx="4" stroke="none"/>
          <rect x="0.5" y="0.5" width="32" height="7" rx="3.5" fill="none"/>
        </g>
      </g>
      <g id="Grupo_605" data-name="Grupo 605" transform="translate(15.089 29.144)">
        <line id="Linha_3" data-name="Linha 3" x2="66.732" fill="none" stroke="#707070" stroke-width="1"/>
        <line id="Linha_4" data-name="Linha 4" x2="66.732" transform="translate(0 7.601)" fill="none" stroke="#707070" stroke-width="1"/>
        <line id="Linha_5" data-name="Linha 5" x2="66.732" transform="translate(0 15.201)" fill="none" stroke="#707070" stroke-width="1"/>
        <path id="Caminho_1" data-name="Caminho 1" d="M27.341,0H75.979" transform="translate(-27.341 22.802)" fill="none" stroke="#707070" stroke-width="1"/>
      </g>
    </g>
    <g id="Grupo_616" data-name="Grupo 616" transform="translate(15.213 12.795)">
      <line id="Linha_58" data-name="Linha 58" x2="66.681" fill="none" stroke="#707070" stroke-width="2"/>
      <path id="Caminho_228" data-name="Caminho 228" d="M27.341,0H75.979" transform="translate(-27.341 5.731)" fill="none" stroke="#707070" stroke-width="2"/>
    </g>
    <g id="Grupo_618" data-name="Grupo 618" transform="translate(118.286 60.141)">
      <g id="Grupo_21" data-name="Grupo 21" transform="translate(0)">
        <g id="Retângulo_4-2" data-name="Retângulo 4" fill="#fff" stroke="#6a6c6a" stroke-width="1">
          <rect width="46.317" height="42.041" stroke="none"/>
          <rect x="0.5" y="0.5" width="45.317" height="41.041" fill="none"/>
        </g>
      </g>
      <line id="Linha_1" data-name="Linha 1" x1="45.973" y2="40.729" transform="translate(0.088 0.356)" fill="none" stroke="#707070" stroke-width="1"/>
      <line id="Linha_2" data-name="Linha 2" x2="45.973" y2="40.729" transform="translate(0.088 0.356)" fill="none" stroke="#707070" stroke-width="1"/>
    </g>
    <g id="Grupo_619" data-name="Grupo 619" transform="translate(66.269 60.141)">
      <g id="Grupo_21-2" data-name="Grupo 21" transform="translate(0)">
        <g id="Retângulo_4-3" data-name="Retângulo 4" fill="#fff" stroke="#6a6c6a" stroke-width="1">
          <rect width="46.317" height="42.041" stroke="none"/>
          <rect x="0.5" y="0.5" width="45.317" height="41.041" fill="none"/>
        </g>
      </g>
      <line id="Linha_1-2" data-name="Linha 1" x1="45.973" y2="40.729" transform="translate(0.088 0.356)" fill="none" stroke="#707070" stroke-width="1"/>
      <line id="Linha_2-2" data-name="Linha 2" x2="45.973" y2="40.729" transform="translate(0.088 0.356)" fill="none" stroke="#707070" stroke-width="1"/>
    </g>
    <g id="Grupo_620" data-name="Grupo 620" transform="translate(14.251 60.141)">
      <g id="Grupo_21-3" data-name="Grupo 21" transform="translate(0)">
        <g id="Retângulo_4-4" data-name="Retângulo 4" fill="#fff" stroke="#6a6c6a" stroke-width="1">
          <rect width="46.317" height="42.041" stroke="none"/>
          <rect x="0.5" y="0.5" width="45.317" height="41.041" fill="none"/>
        </g>
      </g>
      <line id="Linha_1-3" data-name="Linha 1" x1="45.973" y2="40.729" transform="translate(0.088 0.356)" fill="none" stroke="#707070" stroke-width="1"/>
      <line id="Linha_2-3" data-name="Linha 2" x2="45.973" y2="40.729" transform="translate(0.088 0.356)" fill="none" stroke="#707070" stroke-width="1"/>
    </g>
  </g>
</svg>
