<svg xmlns="http://www.w3.org/2000/svg" width="14.919" height="14.272" viewBox="0 0 14.919 14.272">
  <path id="ic_control_point_24px" d="M10.206,5.568H8.714V8.423H5.73V9.85H8.714V12.7h1.492V9.85H13.19V8.423H10.206ZM9.46,2A7.315,7.315,0,0,0,2,9.136a7.315,7.315,0,0,0,7.46,7.136,7.315,7.315,0,0,0,7.46-7.136A7.315,7.315,0,0,0,9.46,2Zm0,12.845A5.85,5.85,0,0,1,3.492,9.136,5.85,5.85,0,0,1,9.46,3.427a5.85,5.85,0,0,1,5.968,5.709A5.85,5.85,0,0,1,9.46,14.845Z" transform="translate(-2 -2)" fill="#6a6c6a"/>
</svg>
